<?xml version="1.0" encoding="utf-8"?>
<!-- Generator: Adobe Illustrator 28.2.0, SVG Export Plug-In . SVG Version: 6.00 Build 0)  -->
<svg version="1.0" id="Layer_1" xmlns="http://www.w3.org/2000/svg" xmlns:xlink="http://www.w3.org/1999/xlink" x="0px" y="0px"
	 viewBox="0 0 311.77 262.17" style="enable-background:new 0 0 311.77 262.17;" xml:space="preserve">
<path id="color_x5F_1_14_" d="M299.16,158.74L162.97,80.92v-3.77c0-3.86,2.33-7.36,5.79-8.71c14.51-5.66,23.54-19.94,22.47-35.51
	c-1.21-17.52-15.33-31.64-32.84-32.84c-9.93-0.7-19.41,2.66-26.67,9.44c-7.16,6.68-11.26,16.12-11.26,25.9
	c0,3.91,3.17,7.08,7.08,7.08c3.91,0,7.08-3.17,7.08-7.08c0-5.95,2.4-11.48,6.76-15.54c4.35-4.06,10.02-6.07,16.02-5.66
	c10.5,0.72,18.96,9.19,19.68,19.68c0.65,9.36-4.77,17.93-13.48,21.34c-8.86,3.45-14.81,12.26-14.81,21.91v3.77L12.6,158.74
	C4.83,163.19,0,171.51,0,180.47c0,13.8,11.22,25.02,25.02,25.02h17.49c3.91,0,7.09,3.18,7.09,7.09c0,11.72,9.53,21.25,21.26,21.25
	c11.72,0,21.25-9.53,21.25-21.25v-28.34c0-3.91,3.18-7.08,7.09-7.08c3.91,0,7.09,3.18,7.09,7.08v56.69
	c0,11.72,9.53,21.25,21.26,21.25s21.26-9.53,21.26-21.25v-85.03c0-3.91,3.18-7.08,7.09-7.08s7.09,3.18,7.09,7.08v85.03
	c0,11.72,9.53,21.25,21.25,21.25c11.72,0,21.26-9.53,21.26-21.25v-56.69c0-3.91,3.18-7.08,7.09-7.08s7.09,3.18,7.09,7.08v28.34
	c0,11.72,9.53,21.25,21.26,21.25c11.72,0,21.26-9.53,21.26-21.25c0-3.91,3.18-7.09,7.09-7.09h17.49c13.8,0,25.02-11.22,25.02-25.02
	C311.77,171.51,306.94,163.19,299.16,158.74z M286.75,191.32h-17.49c-11.72,0-21.26,9.54-21.26,21.26c0,3.91-3.18,7.08-7.09,7.08
	s-7.09-3.18-7.09-7.08v-28.34c0-11.72-9.53-21.25-21.26-21.25c-11.72,0-21.26,9.53-21.26,21.25v56.69c0,3.91-3.18,7.08-7.09,7.08
	c-3.91,0-7.08-3.18-7.08-7.08v-85.03c0-11.72-9.53-21.25-21.26-21.25c-11.72,0-21.26,9.53-21.26,21.25v85.03
	c0,3.91-3.18,7.08-7.09,7.08s-7.09-3.18-7.09-7.08v-56.69c0-11.72-9.53-21.25-21.26-21.25s-21.26,9.53-21.26,21.25v28.34
	c0,3.91-3.18,7.08-7.08,7.08c-3.91,0-7.09-3.18-7.09-7.08c0-11.72-9.53-21.26-21.26-21.26H25.02c-5.98,0-10.85-4.87-10.85-10.85
	c0-3.88,2.1-7.49,5.47-9.42l136.25-77.86l136.24,77.86c3.37,1.93,5.47,5.54,5.47,9.42C297.6,186.45,292.73,191.32,286.75,191.32z"/>
</svg>
